<?xml version="1.0" encoding="UTF-8"?>
<svg version="1.1" xmlns="http://www.w3.org/2000/svg" width="698" height="698">
<path d="M0 0 C230.34 0 460.68 0 698 0 C698 230.34 698 460.68 698 698 C467.66 698 237.32 698 0 698 C0 467.66 0 237.32 0 0 Z " fill="#080209" transform="translate(0,0)"/>
<path d="M0 0 C5 1 5 1 6.51049805 2.52783203 C6.92340088 3.18122559 7.33630371 3.83461914 7.76171875 4.5078125 C8.23552979 5.2395166 8.70934082 5.9712207 9.19750977 6.72509766 C9.93505493 7.91304932 9.93505493 7.91304932 10.6875 9.125 C11.75244038 10.78135531 12.81754695 12.4376038 13.8828125 14.09375 C14.67220215 15.33898437 14.67220215 15.33898437 15.47753906 16.609375 C17.62445683 19.98054543 19.84053085 23.30307689 22.0625 26.625 C22.43990326 27.19109985 22.81730652 27.75719971 23.20614624 28.3404541 C26.0956726 32.66933821 29.02838392 36.96630722 31.984375 41.25 C37.85805435 49.78040406 43.69835197 58.33315749 49.51098633 66.90527344 C50.64652276 68.57806892 51.78395064 70.24958172 52.9230957 71.91992188 C54.59244488 74.36814337 56.25584734 76.82030526 57.91796875 79.2734375 C58.68647408 80.39665909 58.68647408 80.39665909 59.47050476 81.54257202 C63 86.77193797 63 86.77193797 63 89 C63.66 89 64.32 89 65 89 C65.27433868 88.42710739 65.54867737 87.85421478 65.83132935 87.26396179 C67.00192422 84.99627239 68.29668189 82.908278 69.69873047 80.77661133 C70.24044891 79.95087112 70.78216736 79.12513092 71.34030151 78.27436829 C71.92667389 77.38589706 72.51304626 76.49742584 73.1171875 75.58203125 C73.72958282 74.65138351 74.34197815 73.72073578 74.97293091 72.7618866 C76.27478642 70.78494178 77.57778582 68.80874983 78.88183594 66.83325195 C80.83636268 63.87105702 82.78562412 60.90544998 84.734375 57.93945312 C90.97722881 48.45887084 97.29783431 39.05621037 103.89082336 29.8152771 C109.03426942 22.59239273 113.85339497 15.16840201 118.63476562 7.70117188 C119.29283203 6.69505859 119.95089844 5.68894531 120.62890625 4.65234375 C121.20713135 3.75507568 121.78535645 2.85780762 122.38110352 1.93334961 C122.91533936 1.29534424 123.4495752 0.65733887 124 0 C124.99 0 125.98 0 127 0 C125.42434999 4.65694582 122.89000913 8.28562216 120.078125 12.2578125 C119.07902391 13.68969468 118.08101056 15.12233634 117.08398438 16.55566406 C116.31622681 17.65763123 116.31622681 17.65763123 115.53295898 18.78186035 C113.09945745 22.30305452 110.72716311 25.86410036 108.359375 29.4296875 C107.89688354 30.12515686 107.43439209 30.82062622 106.95788574 31.53717041 C105.5542418 33.64910811 104.15190754 35.76190934 102.75 37.875 C97.47450924 45.82615035 92.20389597 53.76946212 86.69824219 61.56396484 C83.29681236 66.44312914 80.03490712 71.41699652 76.75 76.375 C75.35004784 78.48770152 73.94904885 80.59970983 72.546875 82.7109375 C71.93682617 83.63181152 71.32677734 84.55268555 70.69824219 85.50146484 C69 88 69 88 67.42088318 89.72042847 C65.45247702 92.87840987 65.60049317 95.26437028 65.56762695 98.97167969 C65.5574353 99.6647673 65.54724365 100.35785492 65.53674316 101.07194519 C65.50662809 103.35533751 65.4973499 105.63831023 65.48828125 107.921875 C65.47143339 109.50800977 65.45328299 111.0941312 65.43388367 112.68023682 C65.38638889 116.84930248 65.35657631 121.01831403 65.33044434 125.18756104 C65.30063608 129.44415979 65.25410669 133.70057216 65.20898438 137.95703125 C65.12295724 146.30459591 65.05560951 154.65217755 65 163 C64.34 163 63.68 163 63 163 C63.02117889 161.7257164 63.02117889 161.7257164 63.04278564 160.4256897 C63.16628853 152.33706055 63.23018397 144.25047483 63.23059464 136.16086769 C63.23281535 132.00361587 63.25640405 127.84899043 63.33251953 123.69238281 C64.06423886 97.79154191 64.06423886 97.79154191 51.59906006 75.82952881 C48.994177 72.84921011 46.91469239 69.54730063 44.76171875 66.234375 C43.92384768 64.99155135 43.08311642 63.75065103 42.23950195 62.51171875 C41.82270172 61.89731934 41.40590149 61.28291992 40.97647095 60.64990234 C40.33843033 59.70945068 40.33843033 59.70945068 39.6875 58.75 C38.77755613 57.40757361 37.86764458 56.06512531 36.95776367 54.72265625 C31.03816241 45.99136741 25.10560534 37.26897737 19.14526367 28.56542969 C14.03119439 21.08517216 9.02778947 13.54168421 4 6 C3.67 58.14 3.34 110.28 3 164 C-2 163 -2 163 -4.10546875 160.3671875 C-4.81537952 159.21275316 -5.50892597 158.04812798 -6.1875 156.875 C-10.47975282 149.76775154 -15.05091941 142.87023203 -19.67520142 135.97662354 C-21.74781099 132.88425243 -23.81115669 129.78572538 -25.875 126.6875 C-26.70982722 125.43510509 -27.54470778 124.18274573 -28.37963867 122.93041992 C-28.80522064 122.29204193 -29.23080261 121.65366394 -29.66928101 120.99594116 C-31.0571473 118.91428495 -32.44518672 116.83274426 -33.83325195 114.7512207 C-38.52121498 107.72080899 -43.20759912 100.68935977 -47.88858032 93.65429688 C-59.04401013 76.88915369 -70.21765382 60.13899177 -81.55200195 43.49414062 C-86.93759185 35.5817804 -92.2695507 27.63557118 -97.55175781 19.65380859 C-98.06834961 18.87473145 -98.58494141 18.0956543 -99.1171875 17.29296875 C-99.55659668 16.6280542 -99.99600586 15.96313965 -100.44873047 15.27807617 C-102.5796621 12.14875243 -104.79945211 9.08076705 -107 6 C-107.33 57.81 -107.66 109.62 -108 163 C-108.66 163 -109.32 163 -110 163 C-110 109.54 -110 56.08 -110 1 C-105 2 -105 2 -102.71435547 4.69848633 C-101.91655375 5.89957185 -101.13521369 7.11169122 -100.3671875 8.33203125 C-99.93735565 8.98734329 -99.5075238 9.64265533 -99.06466675 10.31782532 C-97.6542851 12.47405363 -96.26503579 14.64311186 -94.875 16.8125 C-93.89787054 18.31280239 -92.91901 19.81197868 -91.93847656 21.31005859 C-90.43508288 23.60758659 -88.93289716 25.90581479 -87.4362793 28.20776367 C-82.64076763 35.58229542 -77.71094315 42.86115418 -72.75 50.125 C-66.87464114 58.74386469 -61.05262609 67.39548437 -55.27661133 76.08105469 C-53.16342789 79.25749796 -51.04637317 82.43135868 -48.9296875 85.60546875 C-48.08722081 86.86912811 -47.24477288 88.13279998 -46.40234375 89.39648438 C-45.98581543 90.02127686 -45.56928711 90.64606934 -45.14013672 91.28979492 C-41.32421875 97.01367187 -41.32421875 97.01367187 -40.05970764 98.91044617 C-39.22494938 100.16257849 -38.39018176 101.41470458 -37.55540466 102.66682434 C-35.70346758 105.44464927 -33.85167451 108.22256972 -32.00024414 111.00073242 C-28.65426794 116.02119332 -25.30576669 121.03995153 -21.95379639 126.05641174 C-20.02249927 128.94708379 -18.09212806 131.83837355 -16.16186523 134.72973633 C-15.17040604 136.21438039 -14.1785371 137.6987509 -13.1862793 139.18286133 C-11.73116709 141.35946171 -10.27755169 143.53705507 -8.82421875 145.71484375 C-8.3835759 146.37322739 -7.94293304 147.03161102 -7.48893738 147.70994568 C-7.07452896 148.33152054 -6.66012054 148.9530954 -6.2331543 149.59350586 C-5.69310005 150.40192177 -5.69310005 150.40192177 -5.14213562 151.22666931 C-3.70912783 153.4516211 -2.36160908 155.73065153 -1 158 C-0.67 105.86 -0.34 53.72 0 0 Z " fill="#C8C9CD" transform="translate(353,282)"/>
<path d="M0 0 C2.14453125 -0.0078125 2.14453125 -0.0078125 5 1 C7.23670795 3.48346785 8.92823932 6.29138826 10.6875 9.125 C11.75244038 10.78135531 12.81754695 12.4376038 13.8828125 14.09375 C14.40907227 14.92390625 14.93533203 15.7540625 15.47753906 16.609375 C17.62445683 19.98054543 19.84053085 23.30307689 22.0625 26.625 C22.43990326 27.19109985 22.81730652 27.75719971 23.20614624 28.3404541 C26.0956726 32.66933821 29.02838392 36.96630722 31.984375 41.25 C37.85805435 49.78040406 43.69835197 58.33315749 49.51098633 66.90527344 C50.64652276 68.57806892 51.78395064 70.24958172 52.9230957 71.91992188 C54.59244488 74.36814337 56.25584734 76.82030526 57.91796875 79.2734375 C58.43030563 80.02225189 58.94264252 80.77106628 59.47050476 81.54257202 C63 86.77193797 63 86.77193797 63 89 C63.66 89 64.32 89 65 89 C65.27433868 88.42710739 65.54867737 87.85421478 65.83132935 87.26396179 C67.00192422 84.99627239 68.29668189 82.908278 69.69873047 80.77661133 C70.24044891 79.95087112 70.78216736 79.12513092 71.34030151 78.27436829 C71.92667389 77.38589706 72.51304626 76.49742584 73.1171875 75.58203125 C73.72958282 74.65138351 74.34197815 73.72073578 74.97293091 72.7618866 C76.27478642 70.78494178 77.57778582 68.80874983 78.88183594 66.83325195 C80.83636268 63.87105702 82.78562412 60.90544998 84.734375 57.93945312 C90.97722881 48.45887084 97.29783431 39.05621037 103.89082336 29.8152771 C109.03426942 22.59239273 113.85339497 15.16840201 118.63476562 7.70117188 C119.62186523 6.19200195 119.62186523 6.19200195 120.62890625 4.65234375 C121.20713135 3.75507568 121.78535645 2.85780762 122.38110352 1.93334961 C122.91533936 1.29534424 123.4495752 0.65733887 124 0 C124.99 0 125.98 0 127 0 C125.42434999 4.65694582 122.89000913 8.28562216 120.078125 12.2578125 C119.07902391 13.68969468 118.08101056 15.12233634 117.08398438 16.55566406 C116.31622681 17.65763123 116.31622681 17.65763123 115.53295898 18.78186035 C113.09945745 22.30305452 110.72716311 25.86410036 108.359375 29.4296875 C107.89688354 30.12515686 107.43439209 30.82062622 106.95788574 31.53717041 C105.5542418 33.64910811 104.15190754 35.76190934 102.75 37.875 C97.47450924 45.82615035 92.20389597 53.76946212 86.69824219 61.56396484 C83.29681236 66.44312914 80.03490712 71.41699652 76.75 76.375 C75.35004784 78.48770152 73.94904885 80.59970983 72.546875 82.7109375 C71.93682617 83.63181152 71.32677734 84.55268555 70.69824219 85.50146484 C69 88 69 88 67.42088318 89.72042847 C65.45247702 92.87840987 65.60049317 95.26437028 65.56762695 98.97167969 C65.5574353 99.6647673 65.54724365 100.35785492 65.53674316 101.07194519 C65.50662809 103.35533751 65.4973499 105.63831023 65.48828125 107.921875 C65.47143339 109.50800977 65.45328299 111.0941312 65.43388367 112.68023682 C65.38638889 116.84930248 65.35657631 121.01831403 65.33044434 125.18756104 C65.30063608 129.44415979 65.25410669 133.70057216 65.20898438 137.95703125 C65.12295724 146.30459591 65.05560951 154.65217755 65 163 C64.34 163 63.68 163 63 163 C63.01411926 162.1504776 63.02823853 161.3009552 63.04278564 160.4256897 C63.16628853 152.33706055 63.23018397 144.25047483 63.23059464 136.16086769 C63.23281535 132.00361587 63.25640405 127.84899043 63.33251953 123.69238281 C64.06423886 97.79154191 64.06423886 97.79154191 51.59906006 75.82952881 C48.994177 72.84921011 46.91469239 69.54730063 44.76171875 66.234375 C43.92384768 64.99155135 43.08311642 63.75065103 42.23950195 62.51171875 C41.82270172 61.89731934 41.40590149 61.28291992 40.97647095 60.64990234 C40.33843033 59.70945068 40.33843033 59.70945068 39.6875 58.75 C38.77755613 57.40757361 37.86764458 56.06512531 36.95776367 54.72265625 C31.03816241 45.99136741 25.10560534 37.26897737 19.14526367 28.56542969 C14.03119439 21.08517216 9.02778947 13.54168421 4 6 C3.67 58.14 3.34 110.28 3 164 C1.68 163.67 0.36 163.34 -1 163 C-0.01 163 0.98 163 2 163 C2 110.53 2 58.06 2 4 C1.34 4 0.68 4 0 4 C0 2.68 0 1.36 0 0 Z " fill="#B7B7BA" transform="translate(353,282)"/>
<path d="M0 0 C0.66 0 1.32 0 2 0 C2 52.47 2 104.94 2 159 C0.68 159 -0.64 159 -2 159 C-3.484375 157.3203125 -3.484375 157.3203125 -4.75 155.125 C-5.17796875 154.40570313 -5.6059375 153.68640625 -6.046875 152.9453125 C-7 151 -7 151 -7 149 C-6.01 149 -5.02 149 -4 149 C-2.515 151.475 -2.515 151.475 -1 154 C-0.505 77.77 -0.505 77.77 0 0 Z " fill="#EFF1F2" transform="translate(353,286)"/>
<path d="M0 0 C1.32 0 2.64 0 4 0 C4 0.99 4 1.98 4 3 C3.34 3 2.68 3 2 3 C2 55.47 2 107.94 2 162 C1.34 162 0.68 162 0 162 C0 108.54 0 55.08 0 0 Z " fill="#E6E9EA" transform="translate(243,283)"/>
<path d="M0 0 C0.99 0 1.98 0 3 0 C1.42434999 4.65694582 -1.10999087 8.28562216 -3.921875 12.2578125 C-4.92097609 13.68969468 -5.91898944 15.12233634 -6.91601562 16.55566406 C-7.427854 17.29030884 -7.93969238 18.02495361 -8.46704102 18.78186035 C-10.90054255 22.30305452 -13.27283689 25.86410036 -15.640625 29.4296875 C-16.10311646 30.12515686 -16.56560791 30.82062622 -17.04211426 31.53717041 C-18.4457582 33.64910811 -19.84809246 35.76190934 -21.25 37.875 C-26.52490694 45.82527042 -31.79594781 53.76648019 -37.30175781 61.55957031 C-41.45090315 67.52202816 -45.40022278 73.62401586 -49.390625 79.69335938 C-50.4115625 81.23540039 -50.4115625 81.23540039 -51.453125 82.80859375 C-52.06317383 83.73470459 -52.67322266 84.66081543 -53.30175781 85.61499023 C-54.74736988 87.64520649 -56.17198281 89.31896433 -58 91 C-58.69506836 89.28295898 -58.69506836 89.28295898 -59 87 C-57.80688477 84.89086914 -57.80688477 84.89086914 -55.87890625 82.47265625 C-52.01720318 77.41269559 -48.41803779 72.23991174 -44.90234375 66.93359375 C-44.34990494 66.10214844 -43.79746613 65.27070313 -43.22828674 64.4140625 C-42.06494396 62.66213918 -40.90243269 60.90966345 -39.74069214 59.15667725 C-36.65738785 54.50711679 -33.56191158 49.8656621 -30.46875 45.22265625 C-26.80801756 39.72545819 -23.14931821 34.22695156 -19.5 28.72216797 C-16.82112887 24.68217153 -14.13251636 20.64883784 -11.43630981 16.62039185 C-10.43959521 15.12719716 -9.44662966 13.63149293 -8.45748901 12.13327026 C-7.09431713 10.06938117 -5.71880638 8.01429663 -4.33984375 5.9609375 C-3.94112061 5.35056137 -3.54239746 4.74018524 -3.1315918 4.11131287 C-2.00756836 2.45458984 -2.00756836 2.45458984 0 0 Z " fill="#C3C4C8" transform="translate(477,282)"/>
<path d="M0 0 C0.99 0 1.98 0 3 0 C1.47866881 4.43860912 -0.93203811 8.01984298 -3.625 11.8125 C-7.23186177 16.95539917 -10.76603462 22.13609551 -14.21484375 27.38671875 C-14.93397949 28.47944092 -15.65311523 29.57216309 -16.39404297 30.69799805 C-17.83187831 32.88745121 -19.26456067 35.08029767 -20.69189453 37.27661133 C-21.3517334 38.27845459 -22.01157227 39.28029785 -22.69140625 40.3125 C-23.28123291 41.21613281 -23.87105957 42.11976563 -24.47875977 43.05078125 C-24.98076904 43.69402344 -25.48277832 44.33726562 -26 45 C-26.66 45 -27.32 45 -28 45 C-27.49361948 39.95436634 -25.04899351 36.61438307 -22.265625 32.5390625 C-21.79058533 31.83026947 -21.31554565 31.12147644 -20.82611084 30.39120483 C-19.30825142 28.13064185 -17.77922539 25.87788529 -16.25 23.625 C-15.23626088 22.11767033 -14.22323249 20.6098624 -13.2109375 19.1015625 C-8.36942046 11.90395652 -8.36942046 11.90395652 -6.28234863 8.87237549 C-5.39631901 7.57867103 -4.52502104 6.27479766 -3.66589355 4.96307373 C-2.51885974 3.25590918 -1.26663997 1.62040753 0 0 Z " fill="#CECFD4" transform="translate(477,282)"/>
<path d="M0 0 C3.09537295 3.78402244 5.96118075 7.67686905 8.75 11.6875 C9.16121094 12.26822266 9.57242187 12.84894531 9.99609375 13.44726562 C13 17.76350966 13 17.76350966 13 20 C10.62515098 19.61518796 9.31353477 19.32235897 7.61206055 17.57299805 C6.29026055 15.61913589 4.97334926 13.66530267 3.6875 11.6875 C3.22021484 11.01009766 2.75292969 10.33269531 2.27148438 9.63476562 C1.83513672 8.97541016 1.39878906 8.31605469 0.94921875 7.63671875 C0.35113403 6.73505981 0.35113403 6.73505981 -0.2590332 5.81518555 C-1.20059262 3.50859765 -0.80945404 2.30759553 0 0 Z " fill="#C7C8CE" transform="translate(303,367)"/>
<path d="M0 0 C0.99 0 1.98 0 3 0 C1.42879231 4.67791382 -1.13119616 8.29924729 -4 12.25 C-4.45117188 12.88679688 -4.90234375 13.52359375 -5.3671875 14.1796875 C-8.74034468 18.87017234 -8.74034468 18.87017234 -11 20 C-10.50216886 14.87233928 -7.93294078 11.34372963 -5.125 7.1875 C-4.67769531 6.49462891 -4.23039062 5.80175781 -3.76953125 5.08789062 C-2.59712244 3.33273584 -1.3057938 1.65831641 0 0 Z " fill="#D3D4D8" transform="translate(477,282)"/>
<path d="M0 0 C3.27983107 0.2997087 4.67081936 0.65591551 6.984375 3.07421875 C7.56703125 3.93660156 8.1496875 4.79898437 8.75 5.6875 C9.34296875 6.53699219 9.9359375 7.38648438 10.546875 8.26171875 C12.11809119 11.22253206 12.6313144 13.68668069 13 17 C10.24927157 14.40208982 7.99971921 11.99956605 5.9375 8.8125 C4.05132707 6.07450704 3.06584306 5.09494395 0 4 C0 2.68 0 1.36 0 0 Z " fill="#CBCED1" transform="translate(353,282)"/>
<path d="M0 0 C0.66 0.99 1.32 1.98 2 3 C0.40818262 5.5086803 -1.19730418 8.00644318 -2.8125 10.5 C-3.26431641 11.21542969 -3.71613281 11.93085938 -4.18164062 12.66796875 C-4.62314453 13.34472656 -5.06464844 14.02148438 -5.51953125 14.71875 C-5.92276611 15.34716797 -6.32600098 15.97558594 -6.74145508 16.62304688 C-7.36443481 17.30463867 -7.36443481 17.30463867 -8 18 C-8.99 18 -9.98 18 -11 18 C-9.48103632 13.56829827 -7.07360191 9.96975924 -4.375 6.1875 C-3.95476562 5.59001953 -3.53453125 4.99253906 -3.1015625 4.37695312 C-2.07220272 2.91479435 -1.0367177 1.45695101 0 0 Z " fill="#C1C0C7" transform="translate(448,325)"/>
<path d="M0 0 C2.73949307 3.28739169 5.26584559 6.70565274 7.75 10.1875 C8.67039062 11.47720703 8.67039062 11.47720703 9.609375 12.79296875 C11 15 11 15 11 17 C10.01 17.33 9.02 17.66 8 18 C6.46336516 15.75944862 4.94599296 13.50937727 3.4375 11.25 C2.78104492 10.29867188 2.78104492 10.29867188 2.11132812 9.328125 C-1.08557452 4.49501234 -1.08557452 4.49501234 -0.61694336 1.78417969 C-0.41335205 1.19540039 -0.20976074 0.60662109 0 0 Z " fill="#C4C4CB" transform="translate(337,418)"/>
<path d="M0 0 C3.15209574 2.93638941 5.4168766 5.97033067 7.6875 9.625 C8.28949219 10.58664062 8.89148438 11.54828125 9.51171875 12.5390625 C11 15 11 15 12 17 C11.01 17.33 10.02 17.66 9 18 C7.48512028 15.94709753 5.98853116 13.88437446 4.5 11.8125 C4.07074219 11.23435547 3.64148438 10.65621094 3.19921875 10.06054688 C0.73107689 6.59339521 -0.58194172 4.2918202 0 0 Z " fill="#C6C7CB" transform="translate(365,295)"/>
<path d="M0 0 C1.32 0 2.64 0 4 0 C4 0.99 4 1.98 4 3 C3.34 3 2.68 3 2 3 C2.02320313 4.20398438 2.04640625 5.40796875 2.0703125 6.6484375 C2.08906863 8.22395215 2.10726899 9.79947348 2.125 11.375 C2.14175781 12.1690625 2.15851563 12.963125 2.17578125 13.78125 C2.19335473 15.85492015 2.10335168 17.92883241 2 20 C1.34 20.66 0.68 21.32 0 22 C0 14.74 0 7.48 0 0 Z " fill="#F4F6F7" transform="translate(243,283)"/>
<path d="M0 0 C3.3772445 1.39275254 4.87070305 2.82273931 6.75 5.9375 C7.17796875 6.62714844 7.6059375 7.31679688 8.046875 8.02734375 C9 10 9 10 9 13 C5.39584951 11.7986165 4.85293989 10.73856012 2.8125 7.625 C2.28269531 6.83351563 1.75289063 6.04203125 1.20703125 5.2265625 C0 3 0 3 0 0 Z " fill="#D7D8DB" transform="translate(263,310)"/>
<path d="M0 0 C3.47000311 1.1566677 3.84701459 1.85726716 5.6875 4.875 C6.12449219 5.57367188 6.56148438 6.27234375 7.01171875 6.9921875 C8 9 8 9 8 12 C4.52999689 10.8433323 4.15298541 10.14273284 2.3125 7.125 C1.87550781 6.42632812 1.43851562 5.72765625 0.98828125 5.0078125 C0 3 0 3 0 0 Z " fill="#CFCFD4" transform="translate(329,408)"/>
<path d="M0 0 C5.90625 5.625 5.90625 5.625 6.1875 9.75 C6.125625 10.4925 6.06375 11.235 6 12 C2.71211176 8.88983545 0.16264012 5.98381075 -2 2 C-1.34 2 -0.68 2 0 2 C0 1.34 0 0.68 0 0 Z " fill="#CFCFD4" transform="translate(247,284)"/>
<path d="M0 0 C0.99 0 1.98 0 3 0 C5.65894107 2.81534937 7.42636089 5.12793601 8 9 C7.01 9.33 6.02 9.66 5 10 C4.16121545 8.71186658 3.32913217 7.41936744 2.5 6.125 C2.0359375 5.40570313 1.571875 4.68640625 1.09375 3.9453125 C0 2 0 2 0 0 Z " fill="#DCDFE1" transform="translate(346,435)"/>
<path d="M0 0 C1.8125 0.5625 1.8125 0.5625 4 2 C5.8125 5.5 5.8125 5.5 7 9 C6.67 9.66 6.34 10.32 6 11 C4.99126984 9.73608512 3.99328178 8.46359117 3 7.1875 C2.443125 6.47980469 1.88625 5.77210938 1.3125 5.04296875 C0 3 0 3 0 0 Z " fill="#DADBDD" transform="translate(359,288)"/>
<path d="M0 0 C3.08089673 2.77280706 4.68775452 5.06326356 6 9 C5.34 9.66 4.68 10.32 4 11 C3.1361871 9.54735962 2.28419546 8.0876837 1.4375 6.625 C0.72400391 5.40683594 0.72400391 5.40683594 -0.00390625 4.1640625 C-0.33261719 3.44992187 -0.66132813 2.73578125 -1 2 C-0.67 1.34 -0.34 0.68 0 0 Z " fill="#BEBFC5" transform="translate(394,338)"/>
<path d="M0 0 C2.25245881 2.68841859 3.88213958 4.64641875 5 8 C4.34 8.66 3.68 9.32 3 10 C-1.06153846 4.58461538 -1.06153846 4.58461538 -0.75 1.625 C-0.5025 1.08875 -0.255 0.5525 0 0 Z " fill="#C2C3C7" transform="translate(303,367)"/>
<path d="M0 0 C0.33 0.66 0.66 1.32 1 2 C0.22265625 3.7265625 0.22265625 3.7265625 -0.9375 5.625 C-1.618125 6.73875 -2.29875 7.8525 -3 9 C-3.66 9 -4.32 9 -5 9 C-4.5206753 4.68607774 -3.2542015 2.83430453 0 0 Z " fill="#D1D0D6" transform="translate(438,342)"/>
<path d="M0 0 C0.66 0.99 1.32 1.98 2 3 C0.02 5.97 0.02 5.97 -2 9 C-2.99 8.34 -3.98 7.68 -5 7 C-3.35 4.69 -1.7 2.38 0 0 Z " fill="#BCBCC3" transform="translate(465,300)"/>
<path d="M0 0 C1.875 0.25 1.875 0.25 4 1 C5.72101535 3.58152302 6 4.84918025 6 8 C5.34 8 4.68 8 4 8 C0 2.58823529 0 2.58823529 0 0 Z " fill="#D3D4D8" transform="translate(314,387)"/>
<path d="M0 0 C1.70884005 1.62339805 3.37446717 3.29319053 5 5 C5 5.66 5 6.32 5 7 C4.01 7.33 3.02 7.66 2 8 C0.4375 5.6875 0.4375 5.6875 -1 3 C-0.67 2.01 -0.34 1.02 0 0 Z " fill="#CDCFD3" transform="translate(343,428)"/>
<path d="M0 0 C0.99 0.33 1.98 0.66 3 1 C4.1875 3.5625 4.1875 3.5625 5 6 C4.34 6.66 3.68 7.32 3 8 C0 3.375 0 3.375 0 0 Z " fill="#C8C8CD" transform="translate(399,347)"/>
<path d="M0 0 C3 1 3 1 5 4 C4.625 6.1875 4.625 6.1875 4 8 C0 3.375 0 3.375 0 0 Z " fill="#DADBDE" transform="translate(375,312)"/>
<path d="M0 0 C0.66 0.99 1.32 1.98 2 3 C0.35 4.65 -1.3 6.3 -3 8 C-2.45276317 4.62537285 -1.9451 2.91765 0 0 Z " fill="#C8CACF" transform="translate(469,294)"/>
<path d="M0 0 C1.32 0.33 2.64 0.66 4 1 C4.33 2.65 4.66 4.3 5 6 C4.01 5.67 3.02 5.34 2 5 C0.8125 2.4375 0.8125 2.4375 0 0 Z " fill="#D8D9DC" transform="translate(332,414)"/>
<path d="M0 0 C0.66 0.99 1.32 1.98 2 3 C0.68 4.65 -0.64 6.3 -2 8 C-2.6875 6.25 -2.6875 6.25 -3 4 C-1.5625 1.75 -1.5625 1.75 0 0 Z " fill="#C5C4CA" transform="translate(432,349)"/>
<path d="M0 0 C0.66 0.33 1.32 0.66 2 1 C0.35 2.65 -1.3 4.3 -3 6 C-3.66 5.01 -4.32 4.02 -5 3 C-2.625 1.4375 -2.625 1.4375 0 0 Z " fill="#170413" transform="translate(190,143)"/>
<path d="M0 0 C0.66 0.33 1.32 0.66 2 1 C1.67 1.66 1.34 2.32 1 3 C1.66 3.33 2.32 3.66 3 4 C0.36 4 -2.28 4 -5 4 C-3.35 2.68 -1.7 1.36 0 0 Z " fill="#180418" transform="translate(198,132)"/>
</svg>
